<svg height="641" width="1194" viewBox="424 181 1194 641" style="background-color:transparent;" preserveAspectRatio="xMinYMin meet" xmlns:xlink="http://www.w3.org/1999/xlink" xmlns="http://www.w3.org/2000/svg"><g transform="translate(0,0)"><path style="fill:none;stroke:#333333;stroke-width:3.0;" d="m464,191l1135,0l2,308l-1137,0"/><path style="fill:none;stroke:#333333;stroke-width:3.0;" d="m439,191l27,0l2,308l-27,0z"/><text transform="matrix(0,-1,1,0,246.99999999999997,816)" style="font-weight:bold; font-size: 12px; text-anchor: start; font-family: arial,helvetica; fill: #333333;" y="208" x="449">Region A</text></g><g transform="translate(0,0)"><path style="fill:none;stroke:#333333;stroke-width:2;" d="M1383,279 C1375,279 1367,322.5  1367,366"/><text style="font-weight:Normal; font-size: 12px; text-anchor: middle; font-family: arial,helvetica; fill: #333333;" y="352" x="1383"/><text style="font-weight:Normal; font-size: 12px; text-anchor: start; font-family: arial,helvetica; fill: #333333;" y="306" x="1372"/><text style="font-weight:Normal; font-size: 12px; text-anchor: middle; font-family: arial,helvetica; fill: #333333;" y="294" x="1395"/></g><g transform="translate(0,0)"><path style="fill:none;stroke:#333333;stroke-width:2;" d="M1430,395 C1449.5,395 1449.5,395  1469,395"/><text style="font-weight:Normal; font-size: 12px; text-anchor: middle; font-family: arial,helvetica; fill: #333333;" y="380" x="1453"/><text style="font-weight:Normal; font-size: 12px; text-anchor: start; font-family: arial,helvetica; fill: #333333;" y="395" x="1449"/><text style="font-weight:Normal; font-size: 12px; text-anchor: middle; font-family: arial,helvetica; fill: #333333;" y="380" x="1444"/></g><g transform="translate(0,0)"><path style="fill:none;stroke:#333333;stroke-width:2;" d="M1531,366 C1531,322 1519.5,278  1508,278"/><text style="font-weight:Normal; font-size: 12px; text-anchor: middle; font-family: arial,helvetica; fill: #333333;" y="296" x="1498"/><text style="font-weight:Normal; font-size: 12px; text-anchor: start; font-family: arial,helvetica; fill: #333333;" y="305" x="1523"/><text style="font-weight:Normal; font-size: 12px; text-anchor: middle; font-family: arial,helvetica; fill: #333333;" y="356" x="1513"/></g><g transform="translate(0,0)"><g transform="matrix(1,0,0,1,503,365)"><path style="fill:none;stroke:#333333;stroke-width:3.0;" d="m0.3421824988660103,37.98304432258343l42.646883924179214,-0.6027196110315728l0,-34.780918156755654l-5.2485564790738986,0l-0.32855673462086415,-7.4243914042074035l-6.560805484037898,0l-0.6562387830853463,6.821671793175832l-15.418431324947134,0.6027196110315728l-1.3120358276846809,-5.616636268106009l-5.576893443303712,0l-0.6562387830853463,5.616636268106009l-7.217259642106475,0z"/></g><text style="font-weight:bold; font-size: 12px; text-anchor: middle; font-family: arial,helvetica; fill: #333333;" y="388" x="524">ELB</text></g><g transform="translate(0,0)"><g transform="matrix(1,0,0,1,670,574)"><path style="fill:none;stroke:#333333;stroke-width:3.0;" d="m0.03469242091847677,11.37604499864167l0.8276732485979085,50.251855145751215l18.217646201841685,11.347303704923467l-0.8282250812581321,-48.63116920517899"/><path style="fill:none;stroke:#333333;stroke-width:3.0;" d="m42.2660401485311,0.030449090535174955c0,0 -39.74777614915867,7.294397367341528 -40.57538988639126,9.726472138266073c-0.828227786320192,2.4315981764639956 16.56120144944954,14.589615536254005 16.56120144944954,14.589615536254005l44.71481110358417,-13.778875403917432l-20.700757919745445,-10.537251986807691z"/><path style="fill:none;stroke:#333333;stroke-width:3.0;" d="m62.96666281517355,10.568482162708769l-0.8276705435358485,50.251722758401066l-43.05890736360401,12.158083553465083l-0.9087926496507958,-48.63116920517899"/><path style="fill:none;stroke:#333333;stroke-width:3.0;" d="m6.658848393251103,30.01618390017486l5.796488133858837,4.052747472761756"/></g><text style="font-weight:bold; font-size: 12px; text-anchor: middle; font-family: arial,helvetica; fill: #333333;" y="662" x="701">Worker (M3 XL)</text></g><g transform="matrix(1,0,0,1,-1,3)"><g transform="matrix(1,0,0,1,1389,553)"><path style="fill:none;stroke:#333333;stroke-width:3.0;" d="m0.33814953638586626,10.85075343655969l0,34.1925309318896c0,0 25.434829818011877,10.773282460928733 62.73600833009346,9.836137878339406c37.30117609031006,-0.9370107812497227 56.7998515714245,-8.430688607134625 56.7998515714245,-8.430688607134625l0,-34.1925309318896"/><path style="fill:none;stroke:#333333;stroke-width:3.0;" d="m63.0707480121709,0.546310869604829c72.64550508697111,3.5417214593288815 81.38617014345995,18.736067783466716 0,19.672677160697624c-81.38531767988283,0.9375459866081403 -86.47040822361556,-23.887553159576324 0,-19.672677160697624z"/></g><text style="font-weight:bold; font-size: 12px; text-anchor: middle; font-family: arial,helvetica; fill: #333333;" y="593" x="1449">DSE (M3 XL)</text></g><g transform="translate(0,0)"><g transform="matrix(1,0,0,1,1306,678)"><path style="fill:none;stroke:#333333;stroke-width:3.0;" d="m0.33814953638586626,10.85075343655969l0,34.1925309318896c0,0 25.434829818011877,10.773282460928733 62.73600833009346,9.836137878339406c37.30117609031006,-0.9370107812497227 56.7998515714245,-8.430688607134625 56.7998515714245,-8.430688607134625l0,-34.1925309318896"/><path style="fill:none;stroke:#333333;stroke-width:3.0;" d="m63.0707480121709,0.546310869604829c72.64550508697111,3.5417214593288815 81.38617014345995,18.736067783466716 0,19.672677160697624c-81.38531767988283,0.9375459866081403 -86.47040822361556,-23.887553159576324 0,-19.672677160697624z"/></g><text style="font-weight:bold; font-size: 12px; text-anchor: middle; font-family: arial,helvetica; fill: #333333;" y="718" x="1366">DSE (M3 XL)</text></g><g transform="translate(0,0)"><g transform="matrix(1,0,0,1,1471,678)"><path style="fill:none;stroke:#333333;stroke-width:3.0;" d="m0.33814953638586626,10.85075343655969l0,34.1925309318896c0,0 25.434829818011877,10.773282460928733 62.73600833009346,9.836137878339406c37.30117609031006,-0.9370107812497227 56.7998515714245,-8.430688607134625 56.7998515714245,-8.430688607134625l0,-34.1925309318896"/><path style="fill:none;stroke:#333333;stroke-width:3.0;" d="m63.0707480121709,0.546310869604829c72.64550508697111,3.5417214593288815 81.38617014345995,18.736067783466716 0,19.672677160697624c-81.38531767988283,0.9375459866081403 -86.47040822361556,-23.887553159576324 0,-19.672677160697624z"/></g><text style="font-weight:bold; font-size: 12px; text-anchor: middle; font-family: arial,helvetica; fill: #333333;" y="718" x="1531">DSE (M3 XL)</text></g><g transform="translate(0,0)"><g transform="matrix(1,0,0,1,679,223)"><path style="fill:none;stroke:#333333;stroke-width:3.0;" d="m0.03469242091847677,11.37604499864167l0.8276732485979085,50.251855145751215l18.217646201841685,11.347303704923467l-0.8282250812581321,-48.63116920517899"/><path style="fill:none;stroke:#333333;stroke-width:3.0;" d="m42.2660401485311,0.030449090535174955c0,0 -39.74777614915867,7.294397367341528 -40.57538988639126,9.726472138266073c-0.828227786320192,2.4315981764639956 16.56120144944954,14.589615536254005 16.56120144944954,14.589615536254005l44.71481110358417,-13.778875403917432l-20.700757919745445,-10.537251986807691z"/><path style="fill:none;stroke:#333333;stroke-width:3.0;" d="m62.96666281517355,10.568482162708769l-0.8276705435358485,50.251722758401066l-43.05890736360401,12.158083553465083l-0.9087926496507958,-48.63116920517899"/><path style="fill:none;stroke:#333333;stroke-width:3.0;" d="m6.658848393251103,30.01618390017486l5.796488133858837,4.052747472761756"/></g><text style="font-weight:bold; font-size: 12px; text-anchor: middle; font-family: arial,helvetica; fill: #333333;" y="311" x="710">Worker (M3 XL)</text></g><g transform="translate(0,0)"><path style="fill:none;stroke:#333333;stroke-width:2;" d="M1386,586 C1376,586 1366,631  1366,676"/><text style="font-weight:Normal; font-size: 12px; text-anchor: middle; font-family: arial,helvetica; fill: #333333;" y="663" x="1383"/><text style="font-weight:Normal; font-size: 12px; text-anchor: start; font-family: arial,helvetica; fill: #333333;" y="614" x="1372"/><text style="font-weight:Normal; font-size: 12px; text-anchor: middle; font-family: arial,helvetica; fill: #333333;" y="602" x="1397"/></g><g transform="translate(0,0)"><path style="fill:none;stroke:#333333;stroke-width:2;" d="M1531,676 C1531,631 1521,586  1511,586"/><text style="font-weight:Normal; font-size: 12px; text-anchor: middle; font-family: arial,helvetica; fill: #333333;" y="604" x="1500"/><text style="font-weight:Normal; font-size: 12px; text-anchor: start; font-family: arial,helvetica; fill: #333333;" y="614" x="1524"/><text style="font-weight:Normal; font-size: 12px; text-anchor: middle; font-family: arial,helvetica; fill: #333333;" y="666" x="1513"/></g><g transform="translate(0,0)"><path style="fill:none;stroke:#333333;stroke-width:2;" d="M1429,705 C1449,705 1449,705  1469,705"/><text style="font-weight:Normal; font-size: 12px; text-anchor: middle; font-family: arial,helvetica; fill: #333333;" y="690" x="1453"/><text style="font-weight:Normal; font-size: 12px; text-anchor: start; font-family: arial,helvetica; fill: #333333;" y="705" x="1449"/><text style="font-weight:Normal; font-size: 12px; text-anchor: middle; font-family: arial,helvetica; fill: #333333;" y="690" x="1443"/></g><g transform="translate(0,0)"><path style="fill:none;stroke:#333333;stroke-width:3.0;" d="m466,499l1135,0l2,308l-1137,0"/><path style="fill:none;stroke:#333333;stroke-width:3.0;" d="m441,499l27,0l2,308l-27,0z"/><text transform="matrix(0,-1,1,0,-59.000000000000014,1126)" style="font-weight:bold; font-size: 12px; text-anchor: start; font-family: arial,helvetica; fill: #333333;" y="516" x="451">Region B</text></g><g transform="translate(0,0)"><g transform="matrix(1,0,0,1,503,591)"><path style="fill:none;stroke:#333333;stroke-width:3.0;" d="m0.3421824988660103,37.98304432258343l42.646883924179214,-0.6027196110315728l0,-34.780918156755654l-5.2485564790738986,0l-0.32855673462086415,-7.4243914042074035l-6.560805484037898,0l-0.6562387830853463,6.821671793175832l-15.418431324947134,0.6027196110315728l-1.3120358276846809,-5.616636268106009l-5.576893443303712,0l-0.6562387830853463,5.616636268106009l-7.217259642106475,0z"/></g><text style="font-weight:bold; font-size: 12px; text-anchor: middle; font-family: arial,helvetica; fill: #333333;" y="614" x="524">ELB</text></g><g transform="translate(0,0)"><g transform="matrix(1,0,0,1,1091,336)"><path style="fill:none;stroke:#333333;stroke-width:3.0;" d="m1.2573217400192938,37.98304432258343l156.7025037214027,-0.6027196110315728l0,-34.780918156755654l-19.285393574271534,0l-1.207254978374338,-7.4243914042074035l-24.10714573204623,0l-2.4112959936624354,6.821671793175832l-56.65377091492203,0.6027196110315728l-4.8209688552134775,-5.616636268106009l-20.491841024232244,0l-2.4112959936624354,5.616636268106009l-26.519233103554022,0z"/></g><text style="font-weight:bold; font-size: 12px; text-anchor: middle; font-family: arial,helvetica; fill: #333333;" y="359" x="1170">Elasticache (M3 medium)</text></g><g transform="translate(0,0)"><g transform="matrix(1,0,0,1,1091,634)"><path style="fill:none;stroke:#333333;stroke-width:3.0;" d="m1.2573217400192938,37.98304432258343l156.7025037214027,-0.6027196110315728l0,-34.780918156755654l-19.285393574271534,0l-1.207254978374338,-7.4243914042074035l-24.10714573204623,0l-2.4112959936624354,6.821671793175832l-56.65377091492203,0.6027196110315728l-4.8209688552134775,-5.616636268106009l-20.491841024232244,0l-2.4112959936624354,5.616636268106009l-26.519233103554022,0z"/></g><text style="font-weight:bold; font-size: 12px; text-anchor: middle; font-family: arial,helvetica; fill: #333333;" y="657" x="1170">Elasticache (M3 medium)</text></g><g transform="translate(0,0)"><g transform="matrix(1,0,0,1,762,348)"><path style="fill:none;stroke:#333333;stroke-width:3.0;" d="m0.03469242091847677,11.37604499864167l0.8276732485979085,50.251855145751215l18.217646201841685,11.347303704923467l-0.8282250812581321,-48.63116920517899"/><path style="fill:none;stroke:#333333;stroke-width:3.0;" d="m42.2660401485311,0.030449090535174955c0,0 -39.74777614915867,7.294397367341528 -40.57538988639126,9.726472138266073c-0.828227786320192,2.4315981764639956 16.56120144944954,14.589615536254005 16.56120144944954,14.589615536254005l44.71481110358417,-13.778875403917432l-20.700757919745445,-10.537251986807691z"/><path style="fill:none;stroke:#333333;stroke-width:3.0;" d="m62.96666281517355,10.568482162708769l-0.8276705435358485,50.251722758401066l-43.05890736360401,12.158083553465083l-0.9087926496507958,-48.63116920517899"/><path style="fill:none;stroke:#333333;stroke-width:3.0;" d="m6.658848393251103,30.01618390017486l5.796488133858837,4.052747472761756"/></g><text style="font-weight:bold; font-size: 12px; text-anchor: middle; font-family: arial,helvetica; fill: #333333;" y="436" x="793">Asyncjob (M3 XL)</text></g><g transform="translate(0,0)"><g transform="matrix(1,0,0,1,601,346)"><path style="fill:none;stroke:#333333;stroke-width:3.0;" d="m0.03469242091847677,11.37604499864167l0.8276732485979085,50.251855145751215l18.217646201841685,11.347303704923467l-0.8282250812581321,-48.63116920517899"/><path style="fill:none;stroke:#333333;stroke-width:3.0;" d="m42.2660401485311,0.030449090535174955c0,0 -39.74777614915867,7.294397367341528 -40.57538988639126,9.726472138266073c-0.828227786320192,2.4315981764639956 16.56120144944954,14.589615536254005 16.56120144944954,14.589615536254005l44.71481110358417,-13.778875403917432l-20.700757919745445,-10.537251986807691z"/><path style="fill:none;stroke:#333333;stroke-width:3.0;" d="m62.96666281517355,10.568482162708769l-0.8276705435358485,50.251722758401066l-43.05890736360401,12.158083553465083l-0.9087926496507958,-48.63116920517899"/><path style="fill:none;stroke:#333333;stroke-width:3.0;" d="m6.658848393251103,30.01618390017486l5.796488133858837,4.052747472761756"/></g><text style="font-weight:bold; font-size: 12px; text-anchor: middle; font-family: arial,helvetica; fill: #333333;" y="434" x="632">Console (M3 L)</text></g><g transform="translate(0,0)"><g transform="matrix(1,0,0,1,921,223)"><path style="fill:none;stroke:#333333;stroke-width:3.0;" d="m0.03469242091847677,11.37604499864167l0.8276732485979085,50.251855145751215l18.217646201841685,11.347303704923467l-0.8282250812581321,-48.63116920517899"/><path style="fill:none;stroke:#333333;stroke-width:3.0;" d="m42.2660401485311,0.030449090535174955c0,0 -39.74777614915867,7.294397367341528 -40.57538988639126,9.726472138266073c-0.828227786320192,2.4315981764639956 16.56120144944954,14.589615536254005 16.56120144944954,14.589615536254005l44.71481110358417,-13.778875403917432l-20.700757919745445,-10.537251986807691z"/><path style="fill:none;stroke:#333333;stroke-width:3.0;" d="m62.96666281517355,10.568482162708769l-0.8276705435358485,50.251722758401066l-43.05890736360401,12.158083553465083l-0.9087926496507958,-48.63116920517899"/><path style="fill:none;stroke:#333333;stroke-width:3.0;" d="m6.658848393251103,30.01618390017486l5.796488133858837,4.052747472761756"/></g><text style="font-weight:bold; font-size: 12px; text-anchor: middle; font-family: arial,helvetica; fill: #333333;" y="311" x="952">ELK (M3 XL)</text></g><g transform="translate(0,0)"><g transform="matrix(1,0,0,1,1027,223)"><path style="fill:none;stroke:#333333;stroke-width:3.0;" d="m0.03469242091847677,11.37604499864167l0.8276732485979085,50.251855145751215l18.217646201841685,11.347303704923467l-0.8282250812581321,-48.63116920517899"/><path style="fill:none;stroke:#333333;stroke-width:3.0;" d="m42.2660401485311,0.030449090535174955c0,0 -39.74777614915867,7.294397367341528 -40.57538988639126,9.726472138266073c-0.828227786320192,2.4315981764639956 16.56120144944954,14.589615536254005 16.56120144944954,14.589615536254005l44.71481110358417,-13.778875403917432l-20.700757919745445,-10.537251986807691z"/><path style="fill:none;stroke:#333333;stroke-width:3.0;" d="m62.96666281517355,10.568482162708769l-0.8276705435358485,50.251722758401066l-43.05890736360401,12.158083553465083l-0.9087926496507958,-48.63116920517899"/><path style="fill:none;stroke:#333333;stroke-width:3.0;" d="m6.658848393251103,30.01618390017486l5.796488133858837,4.052747472761756"/></g><text style="font-weight:bold; font-size: 12px; text-anchor: middle; font-family: arial,helvetica; fill: #333333;" y="311" x="1058">OpsCenter (M3 XL)</text></g><g transform="translate(0,0)"><g transform="matrix(1,0,0,1,1385,246)"><path style="fill:none;stroke:#333333;stroke-width:3.0;" d="m0.33814953638586626,10.85075343655969l0,34.1925309318896c0,0 25.434829818011877,10.773282460928733 62.73600833009346,9.836137878339406c37.30117609031006,-0.9370107812497227 56.7998515714245,-8.430688607134625 56.7998515714245,-8.430688607134625l0,-34.1925309318896"/><path style="fill:none;stroke:#333333;stroke-width:3.0;" d="m63.0707480121709,0.546310869604829c72.64550508697111,3.5417214593288815 81.38617014345995,18.736067783466716 0,19.672677160697624c-81.38531767988283,0.9375459866081403 -86.47040822361556,-23.887553159576324 0,-19.672677160697624z"/></g><text style="font-weight:bold; font-size: 12px; text-anchor: middle; font-family: arial,helvetica; fill: #333333;" y="286" x="1445">DSE (M3 XL)</text></g><g transform="translate(0,0)"><g transform="matrix(1,0,0,1,1307,368)"><path style="fill:none;stroke:#333333;stroke-width:3.0;" d="m0.33814953638586626,10.85075343655969l0,34.1925309318896c0,0 25.434829818011877,10.773282460928733 62.73600833009346,9.836137878339406c37.30117609031006,-0.9370107812497227 56.7998515714245,-8.430688607134625 56.7998515714245,-8.430688607134625l0,-34.1925309318896"/><path style="fill:none;stroke:#333333;stroke-width:3.0;" d="m63.0707480121709,0.546310869604829c72.64550508697111,3.5417214593288815 81.38617014345995,18.736067783466716 0,19.672677160697624c-81.38531767988283,0.9375459866081403 -86.47040822361556,-23.887553159576324 0,-19.672677160697624z"/></g><text style="font-weight:bold; font-size: 12px; text-anchor: middle; font-family: arial,helvetica; fill: #333333;" y="408" x="1367">DSE (M3 XL)</text></g><g transform="translate(0,0)"><g transform="matrix(1,0,0,1,1471,368)"><path style="fill:none;stroke:#333333;stroke-width:3.0;" d="m0.33814953638586626,10.85075343655969l0,34.1925309318896c0,0 25.434829818011877,10.773282460928733 62.73600833009346,9.836137878339406c37.30117609031006,-0.9370107812497227 56.7998515714245,-8.430688607134625 56.7998515714245,-8.430688607134625l0,-34.1925309318896"/><path style="fill:none;stroke:#333333;stroke-width:3.0;" d="m63.0707480121709,0.546310869604829c72.64550508697111,3.5417214593288815 81.38617014345995,18.736067783466716 0,19.672677160697624c-81.38531767988283,0.9375459866081403 -86.47040822361556,-23.887553159576324 0,-19.672677160697624z"/></g><text style="font-weight:bold; font-size: 12px; text-anchor: middle; font-family: arial,helvetica; fill: #333333;" y="408" x="1531">DSE (M3 XL)</text></g><text style="font-weight:Normal; font-size: 16px; text-anchor: end; font-family: Arial; fill: #ccc;" y="807" x="1603">http://sketchboard.io</text></svg>